<?xml version="1.0" encoding="UTF-8"?>
<svg xmlns="http://www.w3.org/2000/svg" viewBox="0 0 1096 1095" width="1096" height="1095">
<path d="M537.13 0.17C544.38 0.17 551.63 0.17 558.88 0.17C563.05 2.37 580.35 1.36 586.5 1.88C604.22 3.37 621.85 5.41 639.41 8.29C690.15 16.62 740.95 32.53 787.06 55.45C896.02 109.62 982.17 194.79 1037.39 303.16C1048.89 325.75 1059.1 349.41 1066.87 373.56C1078.88 410.89 1087.11 448.69 1091.98 487.51C1093.47 499.42 1093.91 511.54 1094.81 523.5C1095.18 528.52 1093.59 535.64 1095.83 540.01C1095.83 547.96 1095.83 555.9 1095.83 563.85C1093.84 567.82 1095.28 573.84 1094.74 578.45C1093.31 590.74 1092.69 603.2 1091.32 615.5C1087.27 651.97 1078.29 688.41 1066.62 723.22C1019.75 862.99 908.49 987.45 772.76 1046.29C727.91 1065.72 680.11 1081.73 631.5 1088.14C615.99 1090.19 600.17 1092.71 584.5 1093.2C579.17 1093.37 562.48 1093.02 558.91 1094.83C551.58 1094.83 544.26 1094.83 536.94 1094.83C533.47 1093.1 528.41 1093.99 524.5 1093.97C516.69 1093.91 508.75 1093.22 500.98 1092.5C472.91 1089.87 445 1085.74 417.58 1078.84C338.09 1058.86 264.73 1022.03 201.22 970.32C184.41 956.63 168.11 942.05 153.45 926.05C150.81 923.17 147.75 920.65 145.42 917.5C151 914.19 157.19 912.1 163.12 909.56C195.77 895.59 231.56 890.28 266.53 886.14C274.06 885.25 281.7 885.29 289.24 884.54C319.42 881.57 350.41 883.19 380.5 885.95C441.5 891.54 501.76 901.99 562.46 910.25C606.97 916.3 651.41 921.9 696.5 917.92C753.16 912.91 811.1 881.66 846.95 837.39C866.35 813.43 881.11 787.59 894.35 759.81C902.21 743.33 909.12 726.12 914.14 708.56C916.01 702.06 919.06 694.93 919.5 688.21C911.5 686.04 903.5 683.86 895.5 681.68C892.65 685.77 890.8 690.57 888.5 695C884.15 703.41 879.29 711.66 874.05 719.55C854.41 749.14 828.65 777.08 798.08 795.56C751.71 823.59 707.85 829.97 654.5 829.97C641.14 829.97 627.78 830.19 614.49 829.26C585.49 827.23 556.41 826.76 527.47 824.29C504.76 822.35 481.29 821.59 458.5 820.73C438.24 819.97 417.81 818.25 397.5 819.33C389.19 819.76 380.82 820.21 372.5 820.79C365.51 821.27 358.47 822.62 351.5 822.53C502.32 621.19 653.14 419.84 803.97 218.5C801.16 216.32 796.2 217.24 792.5 217.24C783.5 217.24 774.5 217.24 765.5 217.24C729.83 217.24 694.17 217.24 658.5 217.24C564.17 217.24 469.83 217.24 375.5 217.24C344.5 217.24 313.5 217.24 282.5 217.24C266.5 217.24 249.82 215.92 233.93 217.5C230.79 222.57 230.09 229.4 228.6 235.16C225.32 247.87 222.1 260.62 218.72 273.31C211.54 300.24 204.36 327.22 197.64 354.26C194.75 365.9 190.39 377.63 188.76 389.5C197.67 391.56 206.59 393.61 215.5 395.67C218.55 392.46 220.32 387.79 222.4 383.88C225.36 378.32 228.57 372.83 232 367.55C245.44 346.85 262.4 326.33 283.12 312.62C307.9 296.21 338.53 290.93 367.44 287.69C407.33 283.21 447.26 282.1 487.5 282.1C504.5 282.1 521.5 282.1 538.5 282.1C547.5 282.1 557.2 281.13 566.07 282.5C414.88 481.02 263.69 679.53 112.5 878.05C107.04 874.43 102.96 866.68 99.26 861.24C91.08 849.25 83.31 837.12 75.78 824.7C43.15 770.82 19.36 706.58 9.03 644.49C5.88 625.58 3.62 606.6 1.89 587.5C1.35 581.5 2.4 565.33 0.17 561.05C0.17 548.75 0.17 536.45 0.17 524.16C2.41 519.89 1.4 508.94 1.88 503.5C2.99 491.15 4.47 478.82 6.16 466.53C10.86 432.37 19.86 398.27 31.26 365.69C79.09 228.93 183.15 115.35 313.6 53.11C357.56 32.13 407.43 15.4 455.7 8.35C473.28 5.78 490.8 3.47 508.5 1.91C514.87 1.35 532.8 2.45 537.13 0.17Z" fill="#2b73c2" fill-rule="evenodd" stroke="#2b73c2" stroke-width="0.25" stroke-linejoin="round"/>
<path d="M0.25 0.25C179.21 0.22 358.17 0.19 537.13 0.17C532.8 2.45 514.87 1.35 508.5 1.91C490.8 3.47 473.28 5.78 455.7 8.35C407.43 15.4 357.56 32.13 313.6 53.11C183.15 115.35 79.09 228.93 31.26 365.69C19.86 398.27 10.86 432.37 6.16 466.53C4.47 478.82 2.99 491.15 1.88 503.5C1.4 508.94 2.41 519.89 0.17 524.16C0.19 349.52 0.22 174.89 0.25 0.25ZM558.88 0.17C737.84 0.19 916.79 0.22 1095.75 0.25C1095.78 180.17 1095.81 360.09 1095.83 540.01C1093.59 535.64 1095.18 528.52 1094.81 523.5C1093.91 511.54 1093.47 499.42 1091.98 487.51C1087.11 448.69 1078.88 410.89 1066.87 373.56C1059.1 349.41 1048.89 325.75 1037.39 303.16C982.17 194.79 896.02 109.62 787.06 55.45C740.95 32.53 690.15 16.62 639.41 8.29C621.85 5.41 604.22 3.37 586.5 1.88C580.35 1.36 563.05 2.37 558.88 0.17ZM536.94 1094.83C358.04 1094.81 179.15 1094.78 0.25 1094.75C0.22 916.85 0.19 738.95 0.17 561.05C2.4 565.33 1.35 581.5 1.89 587.5C3.62 606.6 5.88 625.58 9.03 644.49C19.36 706.58 43.15 770.82 75.78 824.7C83.31 837.12 91.08 849.25 99.26 861.24C102.96 866.68 107.04 874.43 112.5 878.05C263.69 679.53 414.88 481.02 566.07 282.5C557.2 281.13 547.5 282.1 538.5 282.1C521.5 282.1 504.5 282.1 487.5 282.1C447.26 282.1 407.33 283.21 367.44 287.69C338.53 290.93 307.9 296.21 283.12 312.62C262.4 326.33 245.44 346.85 232 367.55C228.57 372.83 225.36 378.32 222.4 383.88C220.32 387.79 218.55 392.46 215.5 395.67C206.59 393.61 197.67 391.56 188.76 389.5C190.39 377.63 194.75 365.9 197.64 354.26C204.36 327.22 211.54 300.24 218.72 273.31C222.1 260.62 225.32 247.87 228.6 235.16C230.09 229.4 230.79 222.57 233.93 217.5C249.82 215.92 266.5 217.24 282.5 217.24C313.5 217.24 344.5 217.24 375.5 217.24C469.83 217.24 564.17 217.24 658.5 217.24C694.17 217.24 729.83 217.24 765.5 217.24C774.5 217.24 783.5 217.24 792.5 217.24C796.2 217.24 801.16 216.32 803.97 218.5C653.14 419.84 502.32 621.19 351.5 822.53C358.47 822.62 365.51 821.27 372.5 820.79C380.82 820.21 389.19 819.76 397.5 819.33C417.81 818.25 438.24 819.97 458.5 820.73C481.29 821.59 504.76 822.35 527.47 824.29C556.41 826.76 585.49 827.23 614.49 829.26C627.78 830.19 641.14 829.97 654.5 829.97C707.85 829.97 751.71 823.59 798.08 795.56C828.65 777.08 854.41 749.14 874.05 719.55C879.29 711.66 884.15 703.41 888.5 695C890.8 690.57 892.65 685.77 895.5 681.68C903.5 683.86 911.5 686.04 919.5 688.21C919.06 694.93 916.01 702.06 914.14 708.56C909.12 726.12 902.21 743.33 894.35 759.81C881.11 787.59 866.35 813.43 846.95 837.39C811.1 881.66 753.16 912.91 696.5 917.92C651.41 921.9 606.97 916.3 562.46 910.25C501.76 901.99 441.5 891.54 380.5 885.95C350.41 883.19 319.42 881.57 289.24 884.54C281.7 885.29 274.06 885.25 266.53 886.14C231.56 890.28 195.77 895.59 163.12 909.56C157.19 912.1 151 914.19 145.42 917.5C147.75 920.65 150.81 923.17 153.45 926.05C168.11 942.05 184.41 956.63 201.22 970.32C264.73 1022.03 338.09 1058.86 417.58 1078.84C445 1085.74 472.91 1089.87 500.98 1092.5C508.75 1093.22 516.69 1093.91 524.5 1093.97C528.41 1093.99 533.47 1093.1 536.94 1094.83ZM1095.83 563.85C1095.81 740.81 1095.78 917.78 1095.75 1094.75C916.8 1094.78 737.85 1094.81 558.91 1094.83C562.48 1093.02 579.17 1093.37 584.5 1093.2C600.17 1092.71 615.99 1090.19 631.5 1088.14C680.11 1081.73 727.91 1065.72 772.76 1046.29C908.49 987.45 1019.75 862.99 1066.62 723.22C1078.29 688.41 1087.27 651.97 1091.32 615.5C1092.69 603.2 1093.31 590.74 1094.74 578.45C1095.28 573.84 1093.84 567.82 1095.83 563.85Z" fill="#ffffff" fill-rule="evenodd" stroke="#ffffff" stroke-width="0.25" stroke-linejoin="round"/>
</svg>